<?xml version="1.0" encoding="UTF-8" standalone="no"?>
<svg
   xmlns:dc="http://purl.org/dc/elements/1.1/"
   xmlns:cc="http://creativecommons.org/ns#"
   xmlns:rdf="http://www.w3.org/1999/02/22-rdf-syntax-ns#"
   xmlns:svg="http://www.w3.org/2000/svg"
   xmlns="http://www.w3.org/2000/svg"
   height="70"
   width="70"
   xml:space="preserve"
   viewBox="0 0 69.999998 69.999998"
   y="0px"
   x="0px"
   id="Capa_1"
   version="1.1"><metadata
   id="metadata969"><rdf:RDF><cc:Work
       rdf:about=""><dc:format>image/svg+xml</dc:format><dc:type
         rdf:resource="http://purl.org/dc/dcmitype/StillImage" /><dc:title></dc:title></cc:Work></rdf:RDF></metadata><defs
   id="defs967" />
<path
   style="fill:#a9a9a9;fill-opacity:1;stroke-width:0.15359972"
   id="path932"
   d="M 0,0 V 70 H 37.279266 V 42.96046 H 28.166195 V 31.92217 h 9.113071 v -9.27021 c 0,-6.74195 5.465385,-12.20733 12.207338,-12.20733 h 9.527022 v 9.92592 h -6.817062 c -2.142256,0 -3.879008,1.73675 -3.879008,3.87901 v 7.67276 h 10.524807 l -1.45459,11.03829 H 48.317556 V 70 H 70 V 0 Z" />
<g
   transform="translate(0,-385.73)"
   id="g934">
</g>
<g
   transform="translate(0,-385.73)"
   id="g936">
</g>
<g
   transform="translate(0,-385.73)"
   id="g938">
</g>
<g
   transform="translate(0,-385.73)"
   id="g940">
</g>
<g
   transform="translate(0,-385.73)"
   id="g942">
</g>
<g
   transform="translate(0,-385.73)"
   id="g944">
</g>
<g
   transform="translate(0,-385.73)"
   id="g946">
</g>
<g
   transform="translate(0,-385.73)"
   id="g948">
</g>
<g
   transform="translate(0,-385.73)"
   id="g950">
</g>
<g
   transform="translate(0,-385.73)"
   id="g952">
</g>
<g
   transform="translate(0,-385.73)"
   id="g954">
</g>
<g
   transform="translate(0,-385.73)"
   id="g956">
</g>
<g
   transform="translate(0,-385.73)"
   id="g958">
</g>
<g
   transform="translate(0,-385.73)"
   id="g960">
</g>
<g
   transform="translate(0,-385.73)"
   id="g962">
</g>
</svg>