<?xml version="1.0" encoding="UTF-8" standalone="no"?>
<svg
   xmlns:dc="http://purl.org/dc/elements/1.1/"
   xmlns:cc="http://creativecommons.org/ns#"
   xmlns:rdf="http://www.w3.org/1999/02/22-rdf-syntax-ns#"
   xmlns:svg="http://www.w3.org/2000/svg"
   xmlns="http://www.w3.org/2000/svg"
   height="70"
   width="70"
   xml:space="preserve"
   viewBox="0 0 70 70"
   y="0px"
   x="0px"
   id="Layer_1"
   version="1.1"><metadata
   id="metadata1602"><rdf:RDF><cc:Work
       rdf:about=""><dc:format>image/svg+xml</dc:format><dc:type
         rdf:resource="http://purl.org/dc/dcmitype/StillImage" /><dc:title></dc:title></cc:Work></rdf:RDF></metadata><defs
   id="defs1600" />
<g
   style="fill:#a9a9a9;fill-opacity:1"
   transform="scale(0.19230769)"
   id="g1565">
	<path
   id="path1559"
   d="M 244.424,83.438 H 119.577 c -19.925,0 -36.139,16.213 -36.139,36.139 v 124.846 c 0,19.929 16.214,36.143 36.139,36.143 h 124.847 c 19.928,0 36.142,-16.214 36.142,-36.143 V 119.577 c 0,-19.925 -16.214,-36.139 -36.142,-36.139 z m -62.426,163.456 c -35.779,0 -64.892,-29.113 -64.892,-64.896 0,-35.779 29.113,-64.892 64.892,-64.892 35.783,0 64.896,29.113 64.896,64.892 0,35.783 -29.113,64.896 -64.896,64.896 z m 66.984,-116.369 c -8.471,0 -15.359,-6.888 -15.359,-15.354 0,-8.467 6.888,-15.355 15.359,-15.355 8.466,0 15.354,6.888 15.354,15.355 0,8.467 -6.888,15.354 -15.354,15.354 z"
   style="clip-rule:evenodd;fill:#a9a9a9;fill-opacity:1;fill-rule:evenodd" />
	<path
   id="path1561"
   d="m 181.998,144.531 c -20.655,0 -37.475,16.812 -37.475,37.467 0,20.663 16.82,37.479 37.475,37.479 20.663,0 37.471,-16.816 37.471,-37.479 0,-20.655 -16.808,-37.467 -37.471,-37.467 z"
   style="clip-rule:evenodd;fill:#a9a9a9;fill-opacity:1;fill-rule:evenodd" />
	<path
   id="path1563"
   d="M 0,0 V 364 H 364 V 0 Z m 307.984,244.423 c 0,35.053 -28.508,63.561 -63.56,63.561 H 119.577 c -35.049,0 -63.561,-28.508 -63.561,-63.561 V 119.577 c 0,-35.049 28.512,-63.561 63.561,-63.561 h 124.847 c 35.052,0 63.56,28.512 63.56,63.561 z"
   style="clip-rule:evenodd;fill:#a9a9a9;fill-opacity:1;fill-rule:evenodd" />
</g>
<g
   transform="translate(0,-294)"
   id="g1567">
</g>
<g
   transform="translate(0,-294)"
   id="g1569">
</g>
<g
   transform="translate(0,-294)"
   id="g1571">
</g>
<g
   transform="translate(0,-294)"
   id="g1573">
</g>
<g
   transform="translate(0,-294)"
   id="g1575">
</g>
<g
   transform="translate(0,-294)"
   id="g1577">
</g>
<g
   transform="translate(0,-294)"
   id="g1579">
</g>
<g
   transform="translate(0,-294)"
   id="g1581">
</g>
<g
   transform="translate(0,-294)"
   id="g1583">
</g>
<g
   transform="translate(0,-294)"
   id="g1585">
</g>
<g
   transform="translate(0,-294)"
   id="g1587">
</g>
<g
   transform="translate(0,-294)"
   id="g1589">
</g>
<g
   transform="translate(0,-294)"
   id="g1591">
</g>
<g
   transform="translate(0,-294)"
   id="g1593">
</g>
<g
   transform="translate(0,-294)"
   id="g1595">
</g>
</svg>