<?xml version="1.0" encoding="UTF-8" standalone="no"?>
<svg
   xmlns:dc="http://purl.org/dc/elements/1.1/"
   xmlns:cc="http://creativecommons.org/ns#"
   xmlns:rdf="http://www.w3.org/1999/02/22-rdf-syntax-ns#"
   xmlns:svg="http://www.w3.org/2000/svg"
   xmlns="http://www.w3.org/2000/svg"
   height="70"
   width="70"
   xml:space="preserve"
   viewBox="0 0 69.999998 69.999998"
   y="0px"
   x="0px"
   id="Capa_1"
   version="1.1"><metadata
   id="metadata39"><rdf:RDF><cc:Work
       rdf:about=""><dc:format>image/svg+xml</dc:format><dc:type
         rdf:resource="http://purl.org/dc/dcmitype/StillImage" /><dc:title></dc:title></cc:Work></rdf:RDF></metadata><defs
   id="defs37" />
<path
   style="fill:#a9a9a9;fill-opacity:1;stroke-width:0.28846115"
   id="path2"
   d="M 0,0 V 70 H 70 V 0 Z M 23.500352,55.60204 H 15.287287 V 26.93131 h 8.212777 V 55.60204 Z M 19.474877,23.66189 c -2.754804,0 -4.995858,-2.07807 -4.995858,-4.63211 0,-2.55403 2.241343,-4.63211 4.995858,-4.63211 2.754516,0 4.995859,2.07808 4.995859,4.63211 0,2.55404 -2.241343,4.63211 -4.995859,4.63211 z M 55.520981,55.60204 H 47.105993 V 38.59841 c 0.0017,-0.0346 0.124615,-2.73404 -1.40596,-4.34653 -0.761825,-0.80279 -1.811247,-1.20981 -3.119418,-1.20981 -3.290765,0 -4.952878,2.36942 -5.6573,3.80451 V 55.60204 H 28.710249 V 26.93131 h 8.212777 v 2.42221 c 2.688458,-2.18106 5.707781,-3.33173 8.750469,-3.33173 7.789316,0 9.847486,6.08451 9.847486,9.30172 z" />
<g
   transform="translate(0,-172.667)"
   id="g4">
</g>
<g
   transform="translate(0,-172.667)"
   id="g6">
</g>
<g
   transform="translate(0,-172.667)"
   id="g8">
</g>
<g
   transform="translate(0,-172.667)"
   id="g10">
</g>
<g
   transform="translate(0,-172.667)"
   id="g12">
</g>
<g
   transform="translate(0,-172.667)"
   id="g14">
</g>
<g
   transform="translate(0,-172.667)"
   id="g16">
</g>
<g
   transform="translate(0,-172.667)"
   id="g18">
</g>
<g
   transform="translate(0,-172.667)"
   id="g20">
</g>
<g
   transform="translate(0,-172.667)"
   id="g22">
</g>
<g
   transform="translate(0,-172.667)"
   id="g24">
</g>
<g
   transform="translate(0,-172.667)"
   id="g26">
</g>
<g
   transform="translate(0,-172.667)"
   id="g28">
</g>
<g
   transform="translate(0,-172.667)"
   id="g30">
</g>
<g
   transform="translate(0,-172.667)"
   id="g32">
</g>
</svg>