<?xml version="1.0" encoding="UTF-8" standalone="no"?>
<svg
   xmlns:dc="http://purl.org/dc/elements/1.1/"
   xmlns:cc="http://creativecommons.org/ns#"
   xmlns:rdf="http://www.w3.org/1999/02/22-rdf-syntax-ns#"
   xmlns:svg="http://www.w3.org/2000/svg"
   xmlns="http://www.w3.org/2000/svg"
   height="70"
   width="70"
   xml:space="preserve"
   viewBox="0 0 70 70"
   y="0px"
   x="0px"
   id="Layer_1"
   version="1.1"><metadata
   id="metadata891"><rdf:RDF><cc:Work
       rdf:about=""><dc:format>image/svg+xml</dc:format><dc:type
         rdf:resource="http://purl.org/dc/dcmitype/StillImage" /><dc:title></dc:title></cc:Work></rdf:RDF></metadata><defs
   id="defs889" />
<path
   id="path854"
   d="M 0,0 V 70 H 70 V 0 Z m 54.269385,25.11677 c 0.01892,0.42661 0.02862,0.85554 0.02862,1.28615 0,13.13893 -10.000308,28.28862 -28.288154,28.28862 -5.614769,0 -10.840923,-1.64569 -15.240769,-4.46723 0.777846,0.0925 1.569077,0.13954 2.371846,0.13954 4.658154,0 8.945077,-1.58939 12.348,-4.25662 -4.350769,-0.0799 -8.022769,-2.95446 -9.288154,-6.90461 0.607385,0.11646 1.230308,0.17892 1.870923,0.17892 0.90677,0 1.785231,-0.12216 2.619539,-0.34892 -4.548154,-0.9137 -7.975539,-4.93185 -7.975539,-9.74893 0,-0.042 0,-0.0837 9.23e-4,-0.12523 1.340308,0.74462 2.873231,1.192 4.503231,1.24369 -2.668,-1.78292 -4.422769,-4.8263 -4.422769,-8.27538 0,-1.82231 0.490308,-3.53 1.346308,-4.99877 4.903538,6.01554 12.229692,9.97354 20.492769,10.38862 -0.169692,-0.728 -0.258,-1.48693 -0.258,-2.266 0,-5.49047 4.452,-9.942 9.942461,-9.942 2.859847,0 5.443847,1.20723 7.257385,3.13938 2.264462,-0.44538 4.392462,-1.27323 6.313538,-2.41246 -0.742153,2.32184 -2.318615,4.26984 -4.371538,5.50061 2.011385,-0.24046 3.927385,-0.77507 5.710462,-1.56584 -1.332616,1.99369 -3.018154,3.74492 -4.961077,5.14646 z"
   style="clip-rule:evenodd;fill:#a9a9a9;fill-opacity:1;fill-rule:evenodd;stroke-width:0.15384616" />
<g
   transform="translate(0,-385)"
   id="g856">
</g>
<g
   transform="translate(0,-385)"
   id="g858">
</g>
<g
   transform="translate(0,-385)"
   id="g860">
</g>
<g
   transform="translate(0,-385)"
   id="g862">
</g>
<g
   transform="translate(0,-385)"
   id="g864">
</g>
<g
   transform="translate(0,-385)"
   id="g866">
</g>
<g
   transform="translate(0,-385)"
   id="g868">
</g>
<g
   transform="translate(0,-385)"
   id="g870">
</g>
<g
   transform="translate(0,-385)"
   id="g872">
</g>
<g
   transform="translate(0,-385)"
   id="g874">
</g>
<g
   transform="translate(0,-385)"
   id="g876">
</g>
<g
   transform="translate(0,-385)"
   id="g878">
</g>
<g
   transform="translate(0,-385)"
   id="g880">
</g>
<g
   transform="translate(0,-385)"
   id="g882">
</g>
<g
   transform="translate(0,-385)"
   id="g884">
</g>
</svg>