<?xml version="1.0" encoding="UTF-8"?>
<!DOCTYPE svg  PUBLIC '-//W3C//DTD SVG 1.1//EN'  'http://www.w3.org/Graphics/SVG/1.1/DTD/svg11.dtd'>
<svg width="283.46" height="283.46" enable-background="new 0 0 283.464 283.464" version="1.1" viewBox="0 0 283.464 283.464" xmlns="http://www.w3.org/2000/svg">
 <g fill-rule="evenodd">
  <path d="m133.92 127.44c10.466 10.466 9.161 17.709 3.889 22.981s-12.515 6.577-22.981-3.889c-10.466-10.465-14.919-34.011-14.919-34.011s23.539 4.45 34.009 14.92z"/>
  <path d="m135.16 99.162c8.809 8.81 7.711 14.905 3.273 19.343s-10.533 5.536-19.343-3.273c-8.809-8.809-12.558-28.626-12.558-28.626s19.83 3.75 28.63 12.558z"/>
  <path d="m135.96 73.875c7.751 7.751 6.785 13.114 2.88 17.019s-9.268 4.871-17.019-2.88c-7.75-7.75-11.049-25.187-11.049-25.187s17.44 3.298 25.19 11.048z"/>
  <path d="m146.72 113.4c-10.466 10.466-9.161 17.709-3.889 22.981s12.515 6.577 22.981-3.889c10.466-10.465 14.919-34.011 14.919-34.011s-23.55 4.461-34.01 14.921z"/>
  <path d="m145.47 85.125c-8.809 8.81-7.711 14.905-3.273 19.343s10.533 5.536 19.343-3.273c8.809-8.809 12.558-28.626 12.558-28.626s-19.82 3.743-28.63 12.551z"/>
  <path d="m144.67 59.839c-7.751 7.751-6.785 13.114-2.88 17.019s9.268 4.871 17.019-2.88c7.75-7.75 11.049-25.187 11.049-25.187s-17.44 3.297-25.19 11.048z"/>
  <path d="m145.07 45.387c0 12.999-5.309 16.686-11.856 16.686s-11.855-3.688-11.855-16.686 11.855-30.385 11.855-30.385 11.85 17.387 11.85 30.385z"/>
  <polygon points="137.02 273.6 147.03 273.6 144.39 154.94 139.65 154.94"/>
  <path d="m141.35 272.6s-18.333-101 50.667-123.33c-49 64-45.333 121.33-45.333 121.33"/>
 </g>
</svg>
