<?xml version="1.0" encoding="UTF-8" standalone="no"?>
<svg
   xmlns:dc="http://purl.org/dc/elements/1.1/"
   xmlns:cc="http://creativecommons.org/ns#"
   xmlns:rdf="http://www.w3.org/1999/02/22-rdf-syntax-ns#"
   xmlns:svg="http://www.w3.org/2000/svg"
   xmlns="http://www.w3.org/2000/svg"
   xmlns:sodipodi="http://sodipodi.sourceforge.net/DTD/sodipodi-0.dtd"
   xmlns:inkscape="http://www.inkscape.org/namespaces/inkscape"
   width="283.46"
   height="283.46"
   enable-background="new 0 0 283.464 283.464"
   version="1.1"
   viewBox="0 0 283.464 283.464"
   id="svg2698"
   sodipodi:docname="heading-dec-ink.svg"
   inkscape:version="0.92.3 (2405546, 2018-03-11)">
  <metadata
     id="metadata2704">
    <rdf:RDF>
      <cc:Work
         rdf:about="">
        <dc:format>image/svg+xml</dc:format>
        <dc:type
           rdf:resource="http://purl.org/dc/dcmitype/StillImage" />
        <dc:title></dc:title>
      </cc:Work>
    </rdf:RDF>
  </metadata>
  <defs
     id="defs2702" />
  <sodipodi:namedview
     pagecolor="#ffffff"
     bordercolor="#666666"
     borderopacity="1"
     objecttolerance="10"
     gridtolerance="10"
     guidetolerance="10"
     inkscape:pageopacity="0"
     inkscape:pageshadow="2"
     inkscape:window-width="1920"
     inkscape:window-height="1017"
     id="namedview2700"
     showgrid="false"
     inkscape:zoom="2"
     inkscape:cx="141.73"
     inkscape:cy="141.73"
     inkscape:window-x="-8"
     inkscape:window-y="-8"
     inkscape:window-maximized="1"
     inkscape:current-layer="svg2698" />
  <g
     id="g3266"
     transform="matrix(3.3123725e-4,0.06843952,-0.06843952,3.3123725e-4,46.116692,132.76768)">
    <path
       d="m 126.07326,101.49921 c 8.05137,8.05137 7.04744,13.62332 2.99176,17.67901 -4.05569,4.05569 -9.62764,5.05961 -17.67901,-2.99176 C 103.33464,108.13586 99.909,90.022203 99.909,90.022203 c 0,0 18.10827,3.423332 26.16272,11.477777 z"
       id="path2678"
       inkscape:connector-curvature="0"
       style="fill-rule:evenodd;stroke-width:0.76928806" />
    <path
       d="m 127.02717,79.745283 c 6.77666,6.777428 5.93198,11.466239 2.51788,14.88034 -3.4141,3.4141 -8.10291,4.258778 -14.88034,-2.51788 -6.77665,-6.776659 -9.66072,-22.021641 -9.66072,-22.021641 0,0 15.25499,2.884831 22.02472,9.66072 z"
       id="path2680"
       inkscape:connector-curvature="0"
       style="fill-rule:evenodd;stroke-width:0.76928806" />
    <path
       d="m 127.6426,60.292296 c 5.96276,5.962752 5.21962,10.088444 2.21555,13.092514 -3.00407,3.00407 -7.12976,3.747202 -13.09251,-2.21555 -5.96198,-5.961982 -8.49986,-19.376059 -8.49986,-19.376059 0,0 13.41638,2.537113 19.37836,8.499095 z"
       id="path2682"
       inkscape:connector-curvature="0"
       style="fill-rule:evenodd;stroke-width:0.76928806" />
    <path
       d="m 135.92014,90.698407 c -8.05137,8.051369 -7.04744,13.623323 -2.99176,17.679013 4.05569,4.05568 9.62764,5.0596 17.67901,-2.99177 8.05137,-8.050595 11.47701,-26.164252 11.47701,-26.164252 0,0 -18.11673,3.431794 -26.16349,11.478548 z"
       id="path2684"
       inkscape:connector-curvature="0"
       style="fill-rule:evenodd;stroke-width:0.76928806" />
    <path
       d="m 134.95853,68.946787 c -6.77666,6.777428 -5.93198,11.466239 -2.51788,14.880339 3.4141,3.4141 8.10291,4.258779 14.88034,-2.51788 6.77666,-6.776658 9.66072,-22.02164 9.66072,-22.02164 0,0 -15.24729,2.879445 -22.02472,9.655334 z"
       id="path2686"
       inkscape:connector-curvature="0"
       style="fill-rule:evenodd;stroke-width:0.76928806" />
    <path
       d="m 134.3431,49.494569 c -5.96275,5.962752 -5.21962,10.088443 -2.21555,13.092513 3.00407,3.00407 7.12977,3.747203 13.09252,-2.215549 5.96198,-5.961983 8.49986,-19.376059 8.49986,-19.376059 0,0 -13.41638,2.536343 -19.37837,8.499095 z"
       id="path2688"
       inkscape:connector-curvature="0"
       style="fill-rule:evenodd;stroke-width:0.76928806" />
    <path
       d="m 134.65082,38.376818 c 0,9.999975 -4.08415,12.83634 -9.12068,12.83634 -5.03653,0 -9.11991,-2.837134 -9.11991,-12.83634 0,-9.999207 9.11991,-23.374818 9.11991,-23.374818 0,0 9.11606,13.375611 9.11606,23.374818 z"
       id="path2690"
       inkscape:connector-curvature="0"
       style="fill-rule:evenodd;stroke-width:0.76928806" />
    <polygon
       transform="matrix(0.76928807,0,0,0.76928807,23.050198,3.4611399)"
       points="147.03,273.6 144.39,154.94 139.65,154.94 137.02,273.6 "
       id="polygon2692"
       style="fill-rule:evenodd" />
  </g>
  <path
     style="fill-rule:evenodd;stroke-width:0.76928806"
     inkscape:connector-curvature="0"
     id="path2694"
     d="m 310.7916,212.66906 c 0,0 -14.10336,-77.6981 38.97752,-94.8763 -37.69512,49.23444 -34.87414,93.33772 -34.87414,93.33772" />
</svg>
