<?xml version="1.0" encoding="UTF-8" standalone="no"?>
<svg
   xmlns:dc="http://purl.org/dc/elements/1.1/"
   xmlns:cc="http://creativecommons.org/ns#"
   xmlns:rdf="http://www.w3.org/1999/02/22-rdf-syntax-ns#"
   xmlns:svg="http://www.w3.org/2000/svg"
   xmlns="http://www.w3.org/2000/svg"
   xmlns:sodipodi="http://sodipodi.sourceforge.net/DTD/sodipodi-0.dtd"
   xmlns:inkscape="http://www.inkscape.org/namespaces/inkscape"
   width="283.46"
   height="283.46"
   enable-background="new 0 0 283.464 283.464"
   version="1.1"
   viewBox="0 0 283.464 283.464"
   id="svg1438"
   sodipodi:docname="pc-logo3-ink.svg"
   inkscape:version="0.92.3 (2405546, 2018-03-11)">
  <metadata
     id="metadata1444">
    <rdf:RDF>
      <cc:Work
         rdf:about="">
        <dc:format>image/svg+xml</dc:format>
        <dc:type
           rdf:resource="http://purl.org/dc/dcmitype/StillImage" />
        <dc:title></dc:title>
      </cc:Work>
    </rdf:RDF>
  </metadata>
  <defs
     id="defs1442" />
  <sodipodi:namedview
     pagecolor="#ffffff"
     bordercolor="#666666"
     borderopacity="1"
     objecttolerance="10"
     gridtolerance="10"
     guidetolerance="10"
     inkscape:pageopacity="0"
     inkscape:pageshadow="2"
     inkscape:window-width="1920"
     inkscape:window-height="1017"
     id="namedview1440"
     showgrid="false"
     inkscape:zoom="2"
     inkscape:cx="141.73"
     inkscape:cy="101.73"
     inkscape:window-x="-8"
     inkscape:window-y="-8"
     inkscape:window-maximized="1"
     inkscape:current-layer="svg1438" />
  <g
     id="g2648">
    <g
       transform="matrix(0.44887365,0,0,0.44887365,60.154255,27.778519)"
       id="g2600"
       style="fill:#656565;fill-opacity:1">
      <g
         id="g2021"
         transform="matrix(0.46247858,0,0,0.46247858,78.703582,142.56579)"
         style="fill:#656565;fill-opacity:1;stroke:#8d7547;stroke-opacity:1">
        <path
           d="m 133.92,127.44 c 10.466,10.466 9.161,17.709 3.889,22.981 -5.272,5.272 -12.515,6.577 -22.981,-3.889 -10.466,-10.465 -14.919,-34.011 -14.919,-34.011 0,0 23.539,4.45 34.009,14.92 z"
           id="path1418"
           inkscape:connector-curvature="0"
           style="fill:#656565;fill-opacity:1;fill-rule:evenodd;stroke:#8d7547;stroke-opacity:1" />
        <path
           d="m 135.16,99.162 c 8.809,8.81 7.711,14.905 3.273,19.343 -4.438,4.438 -10.533,5.536 -19.343,-3.273 -8.809,-8.809 -12.558,-28.626 -12.558,-28.626 0,0 19.83,3.75 28.63,12.558 z"
           id="path1420"
           inkscape:connector-curvature="0"
           style="fill:#656565;fill-opacity:1;fill-rule:evenodd;stroke:#8d7547;stroke-opacity:1" />
        <path
           d="m 135.96,73.875 c 7.751,7.751 6.785,13.114 2.88,17.019 -3.905,3.905 -9.268,4.871 -17.019,-2.88 -7.75,-7.75 -11.049,-25.187 -11.049,-25.187 0,0 17.44,3.298 25.19,11.048 z"
           id="path1422"
           inkscape:connector-curvature="0"
           style="fill:#656565;fill-opacity:1;fill-rule:evenodd;stroke:#8d7547;stroke-opacity:1" />
        <path
           d="m 146.72,113.4 c -10.466,10.466 -9.161,17.709 -3.889,22.981 5.272,5.272 12.515,6.577 22.981,-3.889 10.466,-10.465 14.919,-34.011 14.919,-34.011 0,0 -23.55,4.461 -34.01,14.921 z"
           id="path1424"
           inkscape:connector-curvature="0"
           style="fill:#656565;fill-opacity:1;fill-rule:evenodd;stroke:#8d7547;stroke-opacity:1" />
        <path
           d="m 145.47,85.125 c -8.809,8.81 -7.711,14.905 -3.273,19.343 4.438,4.438 10.533,5.536 19.343,-3.273 8.809,-8.809 12.558,-28.626 12.558,-28.626 0,0 -19.82,3.743 -28.63,12.551 z"
           id="path1426"
           inkscape:connector-curvature="0"
           style="fill:#656565;fill-opacity:1;fill-rule:evenodd;stroke:#8d7547;stroke-opacity:1" />
        <path
           d="m 144.67,59.839 c -7.751,7.751 -6.785,13.114 -2.88,17.019 3.905,3.905 9.268,4.871 17.019,-2.88 7.75,-7.75 11.049,-25.187 11.049,-25.187 0,0 -17.44,3.297 -25.19,11.048 z"
           id="path1428"
           inkscape:connector-curvature="0"
           style="fill:#656565;fill-opacity:1;fill-rule:evenodd;stroke:#8d7547;stroke-opacity:1" />
        <path
           d="m 145.07,45.387 c 0,12.999 -5.309,16.686 -11.856,16.686 -6.547,0 -11.855,-3.688 -11.855,-16.686 0,-12.998 11.855,-30.385 11.855,-30.385 0,0 11.85,17.387 11.85,30.385 z"
           id="path1430"
           inkscape:connector-curvature="0"
           style="fill:#656565;fill-opacity:1;fill-rule:evenodd;stroke:#8d7547;stroke-opacity:1" />
        <polygon
           points="137.02,273.6 147.03,273.6 144.39,154.94 139.65,154.94 "
           id="polygon1432"
           style="fill:#656565;fill-opacity:1;fill-rule:evenodd;stroke:#8d7547;stroke-opacity:1" />
      </g>
    </g>
    <g
       transform="matrix(0.7868033,-0.00424688,0.01019184,0.32785578,8.7228784,57.039728)"
       id="g2589"
       style="fill:#656565;fill-opacity:1">
      <path
         inkscape:connector-curvature="0"
         d="m 108.64941,237.74618 15.68535,-23.52802 c 12.94905,10.12254 13.93408,15.40224 19.56668,24.24089 28.86419,-56.70954 58.78082,-82.31668 100.83327,-113.16193 -40.70818,41.83835 -65.26988,70.04924 -101.95477,155.73202 -12.69727,-20.61055 -21.43402,-42.04538 -34.1321,-43.28685 z"
         id="path2"
         style="fill:#656565;fill-opacity:1;stroke:none;stroke-width:0.78426749;stroke-opacity:1" />
    </g>
    <text
       id="text2586"
       y="133.96188"
       x="51.500725"
       style="font-style:normal;font-variant:normal;font-weight:normal;font-stretch:normal;font-size:40.00056458px;line-height:107.94999695;font-family:'Patua One';-inkscape-font-specification:'Patua One';letter-spacing:0px;word-spacing:0px;fill:none;fill-opacity:1;stroke:#200000;stroke-width:1.00001407;stroke-opacity:0"
       xml:space="preserve"><tspan
         style="line-height:0;letter-spacing:17.30024338px;fill:none;stroke:#200000;stroke-width:1.00001407;stroke-opacity:0"
         y="133.96188"
         x="51.500725"
         id="tspan2584"
         sodipodi:role="line">PIKE</tspan></text>
    <text
       id="text2618"
       y="143.96202"
       x="67.000938"
       style="font-style:normal;font-variant:normal;font-weight:normal;font-stretch:normal;font-size:40.00056458px;line-height:1.25;font-family:'Patua One';-inkscape-font-specification:'Patua One';letter-spacing:12.81018162px;word-spacing:0px;fill:#242424;fill-opacity:0.96482414;stroke:none;stroke-width:1.00001407;"
       xml:space="preserve"><tspan
         style="letter-spacing:12.81018162px;stroke-width:1.00001407;fill:#242424;fill-opacity:0.96482414;"
         y="143.96202"
         x="67.000938"
         id="tspan2616"
         sodipodi:role="line">PIKE</tspan></text>
  </g>
</svg>
