<?xml version="1.0" encoding="UTF-8" standalone="no"?>
<svg
   xmlns:dc="http://purl.org/dc/elements/1.1/"
   xmlns:cc="http://creativecommons.org/ns#"
   xmlns:rdf="http://www.w3.org/1999/02/22-rdf-syntax-ns#"
   xmlns:svg="http://www.w3.org/2000/svg"
   xmlns="http://www.w3.org/2000/svg"
   version="1.1"
   id="Layer_1"
   x="0px"
   y="0px"
   viewBox="0 0 150 150.15483"
   xml:space="preserve"
   width="150"
   height="150.15483"><metadata
   id="metadata106"><rdf:RDF><cc:Work
       rdf:about=""><dc:format>image/svg+xml</dc:format><dc:type
         rdf:resource="http://purl.org/dc/dcmitype/StillImage" /><dc:title></dc:title></cc:Work></rdf:RDF></metadata><defs
   id="defs104" />

<g
   id="g114"
   transform="matrix(0.30241935,0,0,0.30241935,-0.07741935,0)"
   style="fill:#f6923d;fill-opacity:1"><g
     id="g63"
     style="fill:#f6923d;fill-opacity:1">
	<g
   id="g61"
   style="fill:#f6923d;fill-opacity:1">
		<path
   id="path59"
   d="m 248.256,0 c -136.96,0 -248,111.152 -248,248.256 0,137.104 111.04,248.256 248,248.256 136.96,0 248,-111.152 248,-248.256 C 496.256,111.152 385.216,0 248.256,0 Z m 0,480.512 c -127.92,0 -232,-104.192 -232,-232.256 0,-128.064 104.08,-232.256 232,-232.256 127.92,0 232,104.192 232,232.256 0,128.064 -104.08,232.256 -232,232.256 z"
   style="fill:#f6923d;fill-opacity:1" />
	</g>
</g><g
     id="g69"
     style="fill:#f6923d;fill-opacity:1">
	<g
   id="g67"
   style="fill:#f6923d;fill-opacity:1">
		<polygon
   id="polygon65"
   points="118.816,270.4 194.4,346.064 360.144,165.168 348.368,154.368 193.904,322.944 130.128,259.088 "
   style="fill:#f6923d;fill-opacity:1" />
	</g>
</g></g>
<g
   id="g71"
   transform="translate(-0.256,-346.35716)">
</g>
<g
   id="g73"
   transform="translate(-0.256,-346.35716)">
</g>
<g
   id="g75"
   transform="translate(-0.256,-346.35716)">
</g>
<g
   id="g77"
   transform="translate(-0.256,-346.35716)">
</g>
<g
   id="g79"
   transform="translate(-0.256,-346.35716)">
</g>
<g
   id="g81"
   transform="translate(-0.256,-346.35716)">
</g>
<g
   id="g83"
   transform="translate(-0.256,-346.35716)">
</g>
<g
   id="g85"
   transform="translate(-0.256,-346.35716)">
</g>
<g
   id="g87"
   transform="translate(-0.256,-346.35716)">
</g>
<g
   id="g89"
   transform="translate(-0.256,-346.35716)">
</g>
<g
   id="g91"
   transform="translate(-0.256,-346.35716)">
</g>
<g
   id="g93"
   transform="translate(-0.256,-346.35716)">
</g>
<g
   id="g95"
   transform="translate(-0.256,-346.35716)">
</g>
<g
   id="g97"
   transform="translate(-0.256,-346.35716)">
</g>
<g
   id="g99"
   transform="translate(-0.256,-346.35716)">
</g>
</svg>