<?xml version="1.0" encoding="UTF-8" standalone="no"?>
<svg
   xmlns:dc="http://purl.org/dc/elements/1.1/"
   xmlns:cc="http://creativecommons.org/ns#"
   xmlns:rdf="http://www.w3.org/1999/02/22-rdf-syntax-ns#"
   xmlns:svg="http://www.w3.org/2000/svg"
   xmlns="http://www.w3.org/2000/svg"
   height="150.15483"
   width="150"
   xml:space="preserve"
   viewBox="0 0 150 150.15483"
   y="0px"
   x="0px"
   id="Layer_1"
   version="1.1"><metadata
   id="metadata106"><rdf:RDF><cc:Work
       rdf:about=""><dc:format>image/svg+xml</dc:format><dc:type
         rdf:resource="http://purl.org/dc/dcmitype/StillImage" /><dc:title></dc:title></cc:Work></rdf:RDF></metadata><defs
   id="defs104" />

<g
   style="fill:#34383a;fill-opacity:1"
   transform="matrix(0.30241935,0,0,0.30241935,-0.07741935,0)"
   id="g114"><g
     style="fill:#34383a;fill-opacity:1"
     id="g63">
	<g
   style="fill:#34383a;fill-opacity:1"
   id="g61">
		<path
   style="fill:#34383a;fill-opacity:1"
   d="m 248.256,0 c -136.96,0 -248,111.152 -248,248.256 0,137.104 111.04,248.256 248,248.256 136.96,0 248,-111.152 248,-248.256 C 496.256,111.152 385.216,0 248.256,0 Z m 0,480.512 c -127.92,0 -232,-104.192 -232,-232.256 0,-128.064 104.08,-232.256 232,-232.256 127.92,0 232,104.192 232,232.256 0,128.064 -104.08,232.256 -232,232.256 z"
   id="path59" />
	</g>
</g><g
     style="fill:#34383a;fill-opacity:1"
     id="g69">
	<g
   style="fill:#34383a;fill-opacity:1"
   id="g67">
		<polygon
   style="fill:#34383a;fill-opacity:1"
   points="118.816,270.4 194.4,346.064 360.144,165.168 348.368,154.368 193.904,322.944 130.128,259.088 "
   id="polygon65" />
	</g>
</g></g>
<g
   transform="translate(-0.256,-346.35716)"
   id="g71">
</g>
<g
   transform="translate(-0.256,-346.35716)"
   id="g73">
</g>
<g
   transform="translate(-0.256,-346.35716)"
   id="g75">
</g>
<g
   transform="translate(-0.256,-346.35716)"
   id="g77">
</g>
<g
   transform="translate(-0.256,-346.35716)"
   id="g79">
</g>
<g
   transform="translate(-0.256,-346.35716)"
   id="g81">
</g>
<g
   transform="translate(-0.256,-346.35716)"
   id="g83">
</g>
<g
   transform="translate(-0.256,-346.35716)"
   id="g85">
</g>
<g
   transform="translate(-0.256,-346.35716)"
   id="g87">
</g>
<g
   transform="translate(-0.256,-346.35716)"
   id="g89">
</g>
<g
   transform="translate(-0.256,-346.35716)"
   id="g91">
</g>
<g
   transform="translate(-0.256,-346.35716)"
   id="g93">
</g>
<g
   transform="translate(-0.256,-346.35716)"
   id="g95">
</g>
<g
   transform="translate(-0.256,-346.35716)"
   id="g97">
</g>
<g
   transform="translate(-0.256,-346.35716)"
   id="g99">
</g>
</svg>