<?xml version="1.0" encoding="UTF-8" standalone="no"?>
<svg
   xmlns:dc="http://purl.org/dc/elements/1.1/"
   xmlns:cc="http://creativecommons.org/ns#"
   xmlns:rdf="http://www.w3.org/1999/02/22-rdf-syntax-ns#"
   xmlns:svg="http://www.w3.org/2000/svg"
   xmlns="http://www.w3.org/2000/svg"
   id="svg6503"
   version="1.1"
   viewBox="0 0 7.0000001 2.1860905"
   height="2.1860905mm"
   width="7mm">
  <defs
     id="defs6497" />
  <metadata
     id="metadata6500">
    <rdf:RDF>
      <cc:Work
         rdf:about="">
        <dc:format>image/svg+xml</dc:format>
        <dc:type
           rdf:resource="http://purl.org/dc/dcmitype/StillImage" />
        <dc:title></dc:title>
      </cc:Work>
    </rdf:RDF>
  </metadata>
  <g
     transform="translate(-82.109688,-156.28092)"
     id="layer1">
    <g
       id="g6470"
       transform="matrix(-1.703126e-4,0.03518964,0.03518964,1.703126e-4,81.603152,152.74983)">
      <path
         d="m 126.07326,101.49921 c 8.05137,8.05137 7.04744,13.62332 2.99176,17.67901 -4.05569,4.05569 -9.62764,5.05961 -17.67901,-2.99176 C 103.33464,108.13586 99.909,90.022203 99.909,90.022203 c 0,0 18.10827,3.423332 26.16272,11.477777 z"
         id="path6454"
         style="fill-rule:evenodd;stroke-width:0.76928806" />
      <path
         d="m 127.02717,79.745283 c 6.77666,6.777428 5.93198,11.466239 2.51788,14.88034 -3.4141,3.4141 -8.10291,4.258778 -14.88034,-2.51788 -6.77665,-6.776659 -9.66072,-22.021641 -9.66072,-22.021641 0,0 15.25499,2.884831 22.02472,9.66072 z"
         id="path6456"
         style="fill-rule:evenodd;stroke-width:0.76928806" />
      <path
         d="m 127.6426,60.292296 c 5.96276,5.962752 5.21962,10.088444 2.21555,13.092514 -3.00407,3.00407 -7.12976,3.747202 -13.09251,-2.21555 -5.96198,-5.961982 -8.49986,-19.376059 -8.49986,-19.376059 0,0 13.41638,2.537113 19.37836,8.499095 z"
         id="path6458"
         style="fill-rule:evenodd;stroke-width:0.76928806" />
      <path
         d="m 135.92014,90.698407 c -8.05137,8.051369 -7.04744,13.623323 -2.99176,17.679013 4.05569,4.05568 9.62764,5.0596 17.67901,-2.99177 8.05137,-8.050595 11.47701,-26.164252 11.47701,-26.164252 0,0 -18.11673,3.431794 -26.16349,11.478548 z"
         id="path6460"
         style="fill-rule:evenodd;stroke-width:0.76928806" />
      <path
         d="m 134.95853,68.946787 c -6.77666,6.777428 -5.93198,11.466239 -2.51788,14.880339 3.4141,3.4141 8.10291,4.258779 14.88034,-2.51788 6.77666,-6.776658 9.66072,-22.02164 9.66072,-22.02164 0,0 -15.24729,2.879445 -22.02472,9.655334 z"
         id="path6462"
         style="fill-rule:evenodd;stroke-width:0.76928806" />
      <path
         d="m 134.3431,49.494569 c -5.96275,5.962752 -5.21962,10.088443 -2.21555,13.092513 3.00407,3.00407 7.12977,3.747203 13.09252,-2.215549 5.96198,-5.961983 8.49986,-19.376059 8.49986,-19.376059 0,0 -13.41638,2.536343 -19.37837,8.499095 z"
         id="path6464"
         style="fill-rule:evenodd;stroke-width:0.76928806" />
      <path
         d="m 134.65082,38.376818 c 0,9.999975 -4.08415,12.83634 -9.12068,12.83634 -5.03653,0 -9.11991,-2.837134 -9.11991,-12.83634 0,-9.999207 9.11991,-23.374818 9.11991,-23.374818 0,0 9.11606,13.375611 9.11606,23.374818 z"
         id="path6466"
         style="fill-rule:evenodd;stroke-width:0.76928806" />
      <polygon
         transform="matrix(0.76928807,0,0,0.76928807,23.050198,3.4611399)"
         points="137.02,273.6 147.03,273.6 144.39,154.94 139.65,154.94 "
         id="polygon6468"
         style="fill-rule:evenodd" />
    </g>
  </g>
</svg>
