<?xml version="1.0" encoding="UTF-8" standalone="no"?>
<svg
   xmlns:dc="http://purl.org/dc/elements/1.1/"
   xmlns:cc="http://creativecommons.org/ns#"
   xmlns:rdf="http://www.w3.org/1999/02/22-rdf-syntax-ns#"
   xmlns:svg="http://www.w3.org/2000/svg"
   xmlns="http://www.w3.org/2000/svg"
   height="40.027"
   width="47.986813"
   xml:space="preserve"
   viewBox="0 0 47.986813 40.027001"
   y="0px"
   x="0px"
   id="Layer_1"
   version="1.1"><metadata
   id="metadata2251"><rdf:RDF><cc:Work
       rdf:about=""><dc:format>image/svg+xml</dc:format><dc:type
         rdf:resource="http://purl.org/dc/dcmitype/StillImage" /><dc:title></dc:title></cc:Work></rdf:RDF></metadata><defs
   id="defs2249" />

<g
   transform="matrix(0.09372424,0,0,0.09372424,0,-3.9799061)"
   style="fill:#ffffff;fill-opacity:1"
   id="g2802"><g
     id="g2208"
     style="fill:#ffffff;fill-opacity:1">
	<g
   id="g2206"
   style="fill:#ffffff;fill-opacity:1">
		<path
   d="m 0,42.464 v 356 h 196 v -16 H 16 V 113.888 L 256.016,260.56 496,112.784 v 277.68 h 16 v -348 z M 496,94 255.984,241.808 16,95.136 V 58.464 h 480 z"
   id="path2204"
   style="fill:#ffffff;fill-opacity:1" />
	</g>
</g><g
     style="fill:#ffffff;fill-opacity:1"
     id="g2214">
	<g
   style="fill:#ffffff;fill-opacity:1"
   id="g2212">
		<path
   style="fill:#ffffff;fill-opacity:1"
   d="m 389.6,416.912 c 29.264,0 55.424,-27.392 55.424,-74.096 0,-52 -36.432,-89.984 -90.608,-89.984 -69.12,0 -113.648,55.424 -113.648,119.568 0,59.776 43.28,97.136 94.336,97.136 20.864,0 38.304,-3.424 55.424,-12.448 l -4.976,-13.392 c -12.768,7.168 -29.264,10.896 -47.008,10.896 -46.08,0 -80.016,-32.064 -80.016,-84.064 0,-63.2 42.656,-103.376 93.408,-103.376 48.256,0 75.344,32.384 75.344,77.536 0,36.112 -17.744,57.296 -33.632,56.976 -10.272,-0.304 -14.016,-11.216 -9.344,-34.88 l 10.576,-56.352 c -8.096,-3.744 -19.92,-6.544 -33.312,-6.544 -43.28,0 -73.792,35.184 -73.792,73.792 0,24.592 15.568,39.232 33.632,39.232 18.688,0 33.008,-9.024 43.904,-27.392 h 1.248 c -0.928,18.992 10.592,27.392 23.04,27.392 z m -60.72,-16.816 c -13.696,0 -20.544,-9.968 -20.544,-23.664 0,-30.208 22.112,-56.048 49.504,-56.048 7.168,0 12.448,1.248 15.568,2.176 l -6.544,35.2 c -3.424,19.296 -19.92,42.336 -37.984,42.336 z"
   id="path2210" />
	</g>
</g></g>
<g
   transform="translate(0,-429.509)"
   id="g2216">
</g>
<g
   transform="translate(0,-429.509)"
   id="g2218">
</g>
<g
   transform="translate(0,-429.509)"
   id="g2220">
</g>
<g
   transform="translate(0,-429.509)"
   id="g2222">
</g>
<g
   transform="translate(0,-429.509)"
   id="g2224">
</g>
<g
   transform="translate(0,-429.509)"
   id="g2226">
</g>
<g
   transform="translate(0,-429.509)"
   id="g2228">
</g>
<g
   transform="translate(0,-429.509)"
   id="g2230">
</g>
<g
   transform="translate(0,-429.509)"
   id="g2232">
</g>
<g
   transform="translate(0,-429.509)"
   id="g2234">
</g>
<g
   transform="translate(0,-429.509)"
   id="g2236">
</g>
<g
   transform="translate(0,-429.509)"
   id="g2238">
</g>
<g
   transform="translate(0,-429.509)"
   id="g2240">
</g>
<g
   transform="translate(0,-429.509)"
   id="g2242">
</g>
<g
   transform="translate(0,-429.509)"
   id="g2244">
</g>
</svg>