<?xml version="1.0" encoding="UTF-8" standalone="no"?>
<svg
   xmlns:dc="http://purl.org/dc/elements/1.1/"
   xmlns:cc="http://creativecommons.org/ns#"
   xmlns:rdf="http://www.w3.org/1999/02/22-rdf-syntax-ns#"
   xmlns:svg="http://www.w3.org/2000/svg"
   xmlns="http://www.w3.org/2000/svg"
   width="178.00883"
   height="65.093704"
   enable-background="new 0 0 283.464 283.464"
   version="1.1"
   viewBox="0 0 178.01135 65.094625"
   id="svg1438">
  <metadata
     id="metadata1444">
    <rdf:RDF>
      <cc:Work
         rdf:about="">
        <dc:format>image/svg+xml</dc:format>
        <dc:type
           rdf:resource="http://purl.org/dc/dcmitype/StillImage" />
        <dc:title></dc:title>
      </cc:Work>
    </rdf:RDF>
  </metadata>
  <defs
     id="defs1442" />
  <g
     transform="translate(-52.280736,-88.579638)"
     id="g1516">
    <g
       transform="matrix(1.181509,0,0,1.181509,-17.539281,-21.985625)"
       id="g869">
      <g
         style="fill:#656565;fill-opacity:1"
         id="g2600"
         transform="matrix(0.44887365,0,0,0.44887365,60.154255,27.778519)">
        <g
           style="fill:#656565;fill-opacity:1;stroke:#8d7547;stroke-opacity:1"
           transform="matrix(0.46247858,0,0,0.46247858,78.703582,142.56579)"
           id="g2021">
          <path
             style="fill:#656565;fill-opacity:1;fill-rule:evenodd;stroke:#8d7547;stroke-opacity:1"
             id="path1418"
             d="m 133.92,127.44 c 10.466,10.466 9.161,17.709 3.889,22.981 -5.272,5.272 -12.515,6.577 -22.981,-3.889 -10.466,-10.465 -14.919,-34.011 -14.919,-34.011 0,0 23.539,4.45 34.009,14.92 z" />
          <path
             style="fill:#656565;fill-opacity:1;fill-rule:evenodd;stroke:#8d7547;stroke-opacity:1"
             id="path1420"
             d="m 135.16,99.162 c 8.809,8.81 7.711,14.905 3.273,19.343 -4.438,4.438 -10.533,5.536 -19.343,-3.273 -8.809,-8.809 -12.558,-28.626 -12.558,-28.626 0,0 19.83,3.75 28.63,12.558 z" />
          <path
             style="fill:#656565;fill-opacity:1;fill-rule:evenodd;stroke:#8d7547;stroke-opacity:1"
             id="path1422"
             d="m 135.96,73.875 c 7.751,7.751 6.785,13.114 2.88,17.019 -3.905,3.905 -9.268,4.871 -17.019,-2.88 -7.75,-7.75 -11.049,-25.187 -11.049,-25.187 0,0 17.44,3.298 25.19,11.048 z" />
          <path
             style="fill:#656565;fill-opacity:1;fill-rule:evenodd;stroke:#8d7547;stroke-opacity:1"
             id="path1424"
             d="m 146.72,113.4 c -10.466,10.466 -9.161,17.709 -3.889,22.981 5.272,5.272 12.515,6.577 22.981,-3.889 10.466,-10.465 14.919,-34.011 14.919,-34.011 0,0 -23.55,4.461 -34.01,14.921 z" />
          <path
             style="fill:#656565;fill-opacity:1;fill-rule:evenodd;stroke:#8d7547;stroke-opacity:1"
             id="path1426"
             d="m 145.47,85.125 c -8.809,8.81 -7.711,14.905 -3.273,19.343 4.438,4.438 10.533,5.536 19.343,-3.273 8.809,-8.809 12.558,-28.626 12.558,-28.626 0,0 -19.82,3.743 -28.63,12.551 z" />
          <path
             style="fill:#656565;fill-opacity:1;fill-rule:evenodd;stroke:#8d7547;stroke-opacity:1"
             id="path1428"
             d="m 144.67,59.839 c -7.751,7.751 -6.785,13.114 -2.88,17.019 3.905,3.905 9.268,4.871 17.019,-2.88 7.75,-7.75 11.049,-25.187 11.049,-25.187 0,0 -17.44,3.297 -25.19,11.048 z" />
          <path
             style="fill:#656565;fill-opacity:1;fill-rule:evenodd;stroke:#8d7547;stroke-opacity:1"
             id="path1430"
             d="m 145.07,45.387 c 0,12.999 -5.309,16.686 -11.856,16.686 -6.547,0 -11.855,-3.688 -11.855,-16.686 0,-12.998 11.855,-30.385 11.855,-30.385 0,0 11.85,17.387 11.85,30.385 z" />
          <polygon
             style="fill:#656565;fill-opacity:1;fill-rule:evenodd;stroke:#8d7547;stroke-opacity:1"
             id="polygon1432"
             points="144.39,154.94 139.65,154.94 137.02,273.6 147.03,273.6 " />
        </g>
      </g>
      <g
         id="g854">
        <g
           transform="matrix(0.84028585,-0.00453556,0.01088463,0.35014161,2.7474102,50.817978)"
           id="g2589"
           style="fill:#656565;fill-opacity:1">
          <path
             d="m 108.64941,237.74618 15.68535,-23.52802 c 12.94905,10.12254 13.93408,15.40224 19.56668,24.24089 28.86419,-56.70954 58.78082,-82.31668 100.83327,-113.16193 -40.70818,41.83835 -65.26988,70.04924 -101.95477,155.73202 -12.69727,-20.61055 -21.43402,-42.04538 -34.1321,-43.28685 z"
             id="path2"
             style="fill:#656565;fill-opacity:1;stroke:none;stroke-width:0.78426749;stroke-opacity:1" />
        </g>
      </g>
    </g>
    <text
       id="text2586"
       y="133.96188"
       x="51.500725"
       style="font-style:normal;font-variant:normal;font-weight:normal;font-stretch:normal;font-size:40.00056458px;line-height:107.94999695;font-family:'Patua One';-inkscape-font-specification:'Patua One';letter-spacing:0px;word-spacing:0px;fill:none;fill-opacity:1;stroke:#200000;stroke-width:1.00001407;stroke-opacity:0"
       xml:space="preserve"><tspan
         style="line-height:0;letter-spacing:17.30024338px;fill:none;stroke:#200000;stroke-width:1.00001407;stroke-opacity:0"
         y="133.96188"
         x="51.500725"
         id="tspan2584">PIKE</tspan></text>
    <text
       id="text2618"
       y="144.46202"
       x="67.000938"
       style="font-style:normal;font-variant:normal;font-weight:normal;font-stretch:normal;font-size:40.00056458px;line-height:1.25;font-family:'Patua One';-inkscape-font-specification:'Patua One';letter-spacing:14.19020081px;word-spacing:0px;fill:#242424;fill-opacity:0.96482412;stroke:none;stroke-width:1.00001407"
       xml:space="preserve"><tspan
         style="font-style:normal;font-variant:normal;font-weight:900;font-stretch:normal;font-family:'Work Sans';-inkscape-font-specification:'Work Sans Heavy';letter-spacing:14.19020081px;fill:#242424;fill-opacity:0.96482412;stroke-width:1.00001407"
         y="144.46202"
         x="67.000938"
         id="tspan2616">PIKE</tspan></text>
  </g>
</svg>
