 <?xml version="1.0" encoding="UTF-8" standalone="no"?>
<svg
   xmlns:dc="http://purl.org/dc/elements/1.1/"
   xmlns:cc="http://creativecommons.org/ns#"
   xmlns:rdf="http://www.w3.org/1999/02/22-rdf-syntax-ns#"
   xmlns:svg="http://www.w3.org/2000/svg"
   xmlns="http://www.w3.org/2000/svg"
   width="162.70988"
   height="66.716026"
   enable-background="new 0 0 283.464 283.464"
   version="1.1"
   viewBox="0 0 162.71219 66.716971"
   id="svg1438">
  <metadata
     id="metadata1444">
    <rdf:RDF>
      <cc:Work
         rdf:about="">
        <dc:format>image/svg+xml</dc:format>
        <dc:type
           rdf:resource="http://purl.org/dc/dcmitype/StillImage" />
        <dc:title></dc:title>
      </cc:Work>
    </rdf:RDF>
  </metadata>
  <defs
     id="defs1442">
    <clipPath
       id="clipPath1598"
       clipPathUnits="userSpaceOnUse">
      <rect
         clip-path="none"
         y="145.04907"
         x="122.35074"
         height="90.552414"
         width="45.547325"
         id="rect1600"
         style="fill:none;fill-opacity:0.95979901;stroke:#ffffff;stroke-width:0.54223007;stroke-opacity:0.9748744" />
    </clipPath>
    <clipPath
       id="clipPath1598-3"
       clipPathUnits="userSpaceOnUse">
      <rect
         clip-path="none"
         y="145.04907"
         x="122.35074"
         height="90.552414"
         width="45.547325"
         id="rect1600-3"
         style="fill:none;fill-opacity:0.95979901;stroke:#ffffff;stroke-width:0.54223007;stroke-opacity:0.9748744" />
    </clipPath>
  </defs>
  <g
     transform="translate(-1.0433197e-6,-160.53116)"
     id="g1541">
    <g
       transform="matrix(0.54459204,0,0,0.54459204,-17.587218,80.10785)"
       id="g2600"
       style="fill:#7b7b7b;fill-opacity:1;stroke:none;stroke-opacity:0.95477385"
       clip-path="url(#clipPath1598)">
      <g
         id="g2021"
         transform="matrix(0.46247858,0,0,0.46247858,78.703582,142.56579)"
         style="fill:#7b7b7b;fill-opacity:1;stroke:none;stroke-opacity:0.95477385">
        <path
           d="m 133.92,127.44 c 10.466,10.466 9.161,17.709 3.889,22.981 -5.272,5.272 -12.515,6.577 -22.981,-3.889 -10.466,-10.465 -14.919,-34.011 -14.919,-34.011 0,0 23.539,4.45 34.009,14.92 z"
           id="path1418"
           style="fill:#7b7b7b;fill-opacity:1;fill-rule:evenodd;stroke:none;stroke-opacity:0.95477385" />
        <path
           d="m 135.16,99.162 c 8.809,8.81 7.711,14.905 3.273,19.343 -4.438,4.438 -10.533,5.536 -19.343,-3.273 -8.809,-8.809 -12.558,-28.626 -12.558,-28.626 0,0 19.83,3.75 28.63,12.558 z"
           id="path1420"
           style="fill:#7b7b7b;fill-opacity:1;fill-rule:evenodd;stroke:none;stroke-opacity:0.95477385" />
        <path
           d="m 135.96,73.875 c 7.751,7.751 6.785,13.114 2.88,17.019 -3.905,3.905 -9.268,4.871 -17.019,-2.88 -7.75,-7.75 -11.049,-25.187 -11.049,-25.187 0,0 17.44,3.298 25.19,11.048 z"
           id="path1422"
           style="fill:#7b7b7b;fill-opacity:1;fill-rule:evenodd;stroke:none;stroke-opacity:0.95477385" />
        <path
           d="m 146.72,113.4 c -10.466,10.466 -9.161,17.709 -3.889,22.981 5.272,5.272 12.515,6.577 22.981,-3.889 10.466,-10.465 14.919,-34.011 14.919,-34.011 0,0 -23.55,4.461 -34.01,14.921 z"
           id="path1424"
           style="fill:#7b7b7b;fill-opacity:1;fill-rule:evenodd;stroke:none;stroke-opacity:0.95477385" />
        <path
           d="m 145.47,85.125 c -8.809,8.81 -7.711,14.905 -3.273,19.343 4.438,4.438 10.533,5.536 19.343,-3.273 8.809,-8.809 12.558,-28.626 12.558,-28.626 0,0 -19.82,3.743 -28.63,12.551 z"
           id="path1426"
           style="fill:#7b7b7b;fill-opacity:1;fill-rule:evenodd;stroke:none;stroke-opacity:0.95477385" />
        <path
           d="m 144.67,59.839 c -7.751,7.751 -6.785,13.114 -2.88,17.019 3.905,3.905 9.268,4.871 17.019,-2.88 7.75,-7.75 11.049,-25.187 11.049,-25.187 0,0 -17.44,3.297 -25.19,11.048 z"
           id="path1428"
           style="fill:#7b7b7b;fill-opacity:1;fill-rule:evenodd;stroke:none;stroke-opacity:0.95477385" />
        <path
           d="m 145.07,45.387 c 0,12.999 -5.309,16.686 -11.856,16.686 -6.547,0 -11.855,-3.688 -11.855,-16.686 0,-12.998 11.855,-30.385 11.855,-30.385 0,0 11.85,17.387 11.85,30.385 z"
           id="path1430"
           style="fill:#7b7b7b;fill-opacity:1;fill-rule:evenodd;stroke:none;stroke-opacity:0.95477385" />
        <polygon
           points="144.39,154.94 139.65,154.94 137.02,273.6 147.03,273.6 "
           id="polygon1432"
           style="fill:#7b7b7b;fill-opacity:1;fill-rule:evenodd;stroke:none;stroke-opacity:0.95477385" />
      </g>
    </g>
    <g
       style="fill:#7b7b7b;fill-opacity:1;stroke:none;stroke-opacity:1"
       id="g854"
       transform="matrix(1.2132413,0,0,1.2132413,-91.775296,46.996395)">
      <g
         style="fill:#7b7b7b;fill-opacity:1;stroke:none;stroke-opacity:1"
         id="g2589"
         transform="matrix(0.84028585,-0.00453556,0.01088463,0.35014161,2.7474102,50.817978)">
        <path
           style="fill:#7b7b7b;fill-opacity:1;stroke:none;stroke-width:0.78426749;stroke-opacity:1"
           id="path2"
           d="m 108.64941,237.74618 15.68535,-23.52802 c 12.94905,10.12254 13.93408,15.40224 19.56668,24.24089 28.86419,-56.70954 58.78082,-82.31668 100.83327,-113.16193 -40.70818,41.83835 -65.26988,70.04924 -101.95477,155.73202 -12.69727,-20.61055 -21.43402,-42.04538 -34.1321,-43.28685 z" />
      </g>
    </g>
    <text
       id="text2618"
       y="218.20969"
       x="-2.9984648"
       textlength="150"
       style="font-style:normal;font-variant:normal;font-weight:normal;font-stretch:normal;font-size:41.07487488px;line-height:1.25;font-family:'Patua One';-inkscape-font-specification:'Patua One';letter-spacing:14.5713129px;word-spacing:0px;fill:#242424;fill-opacity:0.92964825;stroke:none;stroke-width:1.02687192;stroke-opacity:0.96984923"
       xml:space="preserve"><tspan
         style="font-style:normal;font-variant:normal;font-weight:bold;font-stretch:normal;font-family:'Baskerville Old Face';-inkscape-font-specification:'Baskerville Old Face Bold';letter-spacing:14.5713129px;fill:#242424;fill-opacity:0.92964825;stroke:none;stroke-width:1.02687192;stroke-opacity:0.96984923"
         y="218.20969"
         x="-2.9984648"
         textlength="150"
         id="tspan2616"><tspan
           id="tspan996"
           style="font-style:normal;font-variant:normal;font-weight:bold;font-stretch:normal;font-family:'Work Sans';-inkscape-font-specification:'Work Sans Bold';fill:#242424;fill-opacity:0.92964825;stroke-width:1.02687192">PIKE</tspan></tspan></text>
  </g>
</svg>
