<?xml version="1.0" encoding="UTF-8" standalone="no"?>
<svg
   xmlns:dc="http://purl.org/dc/elements/1.1/"
   xmlns:cc="http://creativecommons.org/ns#"
   xmlns:rdf="http://www.w3.org/1999/02/22-rdf-syntax-ns#"
   xmlns:svg="http://www.w3.org/2000/svg"
   xmlns="http://www.w3.org/2000/svg"
   height="40.027164"
   width="40"
   xml:space="preserve"
   viewBox="0 0 39.999998 40.027163"
   y="0px"
   x="0px"
   id="Layer_1"
   version="1.1"><metadata
   id="metadata1610"><rdf:RDF><cc:Work
       rdf:about=""><dc:format>image/svg+xml</dc:format><dc:type
         rdf:resource="http://purl.org/dc/dcmitype/StillImage" /><dc:title></dc:title></cc:Work></rdf:RDF></metadata><defs
   id="defs1608" />
<g
   transform="matrix(0.22325169,0,0,0.22325169,-0.01367294,-7.5737402e-5)"
   style="fill:#ffffff;fill-opacity:1"
   id="g1573">
	<g
   style="fill:#ffffff;fill-opacity:1"
   id="g1571">
		<path
   style="fill:#ffffff;fill-opacity:1"
   id="path1569"
   d="m 178.213,138.605 -31.587,-31.587 c -1.215,-1.215 -3.137,-1.368 -4.521,-0.336 l -22.707,16.783 c -3.232,2.389 -8.361,2.012 -11.199,-0.821 L 56.591,71.034 C 53.754,68.197 53.378,63.07 55.768,59.836 L 72.553,37.13 c 1.023,-1.384 0.879,-3.308 -0.338,-4.523 L 40.629,1.02 C 39.321,-0.286 37.217,-0.348 35.848,0.895 L 13.829,20.711 C -2.415,35.328 -4.59,61.041 8.933,78.129 c 1.184,1.873 8.966,13.179 43.98,48.193 34.882,34.881 46.198,42.706 48.127,43.931 7.501,6.074 16.713,9.039 25.94,9.039 11.637,-0.003 23.296,-4.723 31.543,-13.888 l 19.816,-22.018 c 1.237,-1.374 1.181,-3.475 -0.126,-4.781 z m -24.854,22.15 c -12.395,13.773 -33.969,15.551 -48.096,3.974 -0.134,-0.112 -0.304,-0.227 -0.455,-0.315 C 104.409,164.176 94.59,158.171 57.827,121.409 21.055,84.634 15.021,74.777 14.798,74.407 14.708,74.248 14.606,74.098 14.493,73.956 3.078,59.691 4.866,38.124 18.478,25.875 L 38.046,8.264 65.186,35.402 50.18,55.704 c -4.469,6.046 -3.811,14.937 1.498,20.244 l 51.608,51.61 c 5.307,5.307 14.2,5.969 20.244,1.493 l 20.3,-15.001 27.14,27.138 z" />
	</g>
</g>
<g
   transform="translate(-0.0612445,-139.26484)"
   id="g1575">
</g>
<g
   transform="translate(-0.0612445,-139.26484)"
   id="g1577">
</g>
<g
   transform="translate(-0.0612445,-139.26484)"
   id="g1579">
</g>
<g
   transform="translate(-0.0612445,-139.26484)"
   id="g1581">
</g>
<g
   transform="translate(-0.0612445,-139.26484)"
   id="g1583">
</g>
<g
   transform="translate(-0.0612445,-139.26484)"
   id="g1585">
</g>
<g
   transform="translate(-0.0612445,-139.26484)"
   id="g1587">
</g>
<g
   transform="translate(-0.0612445,-139.26484)"
   id="g1589">
</g>
<g
   transform="translate(-0.0612445,-139.26484)"
   id="g1591">
</g>
<g
   transform="translate(-0.0612445,-139.26484)"
   id="g1593">
</g>
<g
   transform="translate(-0.0612445,-139.26484)"
   id="g1595">
</g>
<g
   transform="translate(-0.0612445,-139.26484)"
   id="g1597">
</g>
<g
   transform="translate(-0.0612445,-139.26484)"
   id="g1599">
</g>
<g
   transform="translate(-0.0612445,-139.26484)"
   id="g1601">
</g>
<g
   transform="translate(-0.0612445,-139.26484)"
   id="g1603">
</g>
</svg>