<?xml version="1.0" encoding="UTF-8" standalone="no"?>
<svg
   xmlns:dc="http://purl.org/dc/elements/1.1/"
   xmlns:cc="http://creativecommons.org/ns#"
   xmlns:rdf="http://www.w3.org/1999/02/22-rdf-syntax-ns#"
   xmlns:svg="http://www.w3.org/2000/svg"
   xmlns="http://www.w3.org/2000/svg"
   height="162.7941"
   width="301.72852"
   version="1.1"
   viewBox="0 0 301.7285 162.7941"
   data-name="Layer 1"
   id="Layer_1">
  <metadata
     id="metadata17">
    <rdf:RDF>
      <cc:Work
         rdf:about="">
        <dc:format>image/svg+xml</dc:format>
        <dc:type
           rdf:resource="http://purl.org/dc/dcmitype/StillImage" />
        <dc:title>Logo colour</dc:title>
      </cc:Work>
    </rdf:RDF>
  </metadata>
  <defs
     id="defs4">
    <style
       id="style2">.cls-1{fill:#806d33;}.cls-2{font-size:30px;font-family:Arya-Single, Arya;}</style>
  </defs>
  <title
     id="title6">Logo colour</title>
  <g
     id="g826">
    <path
       class="cls-1"
       d="m 150.86426,0 a 59.5,59.5 0 1 0 59.5,59.5 59.5,59.5 0 0 0 -59.5,-59.5 z m 28.72,60.15 a 28.62,28.62 0 0 1 -10.13,10.74 32.38,32.38 0 0 1 -7.45,3.42 31.41,31.41 0 0 1 -8.3,1.1 V 65.16 a 20.51,20.51 0 0 0 13.66,-5.74 18.39,18.39 0 0 0 6.1,-13.92 19.36,19.36 0 0 0 -5.74,-14 20,20 0 0 0 -28.08,0 18.76,18.76 0 0 0 -5.86,13.92 v 61.48 q -3.42,-3.3 -10,-9.89 V 45.38 a 27.25,27.25 0 0 1 1.22,-8.18 26.65,26.65 0 0 1 3.3,-7.45 29.35,29.35 0 0 1 25.39,-14 31.41,31.41 0 0 1 8.3,1.1 35.9,35.9 0 0 1 7.45,3.3 29.8,29.8 0 0 1 10.13,40 z"
       id="path8"
       style="fill:#806d33" />
    <text
       class="cls-2"
       id="text10"
       style="font-size:30px;font-family:Arya-Single, Arya"
       x="-2.9296875"
       y="162.34">PIKE COMMODITIES</text>
  </g>
  <text
     id="text12"
     y="-81"
     x="-314.79968" />
</svg>
