<?xml version="1.0" encoding="UTF-8" standalone="no"?>
<!-- Generator: Adobe Illustrator 19.0.0, SVG Export Plug-In . SVG Version: 6.00 Build 0)  -->

<svg
   xmlns:dc="http://purl.org/dc/elements/1.1/"
   xmlns:cc="http://creativecommons.org/ns#"
   xmlns:rdf="http://www.w3.org/1999/02/22-rdf-syntax-ns#"
   xmlns:svg="http://www.w3.org/2000/svg"
   xmlns="http://www.w3.org/2000/svg"
   xmlns:sodipodi="http://sodipodi.sourceforge.net/DTD/sodipodi-0.dtd"
   xmlns:inkscape="http://www.inkscape.org/namespaces/inkscape"
   version="1.1"
   id="Layer_1"
   x="0px"
   y="0px"
   viewBox="0 0 152.52919 150"
   xml:space="preserve"
   sodipodi:docname="truck-orange-ink.svg"
   width="152.52919"
   height="150"
   inkscape:version="0.92.3 (2405546, 2018-03-11)"><metadata
   id="metadata5959"><rdf:RDF><cc:Work
       rdf:about=""><dc:format>image/svg+xml</dc:format><dc:type
         rdf:resource="http://purl.org/dc/dcmitype/StillImage" /><dc:title></dc:title></cc:Work></rdf:RDF></metadata><defs
   id="defs5957" /><sodipodi:namedview
   pagecolor="#ffffff"
   bordercolor="#666666"
   borderopacity="1"
   objecttolerance="10"
   gridtolerance="10"
   guidetolerance="10"
   inkscape:pageopacity="0"
   inkscape:pageshadow="2"
   inkscape:window-width="1920"
   inkscape:window-height="1017"
   id="namedview5955"
   showgrid="false"
   inkscape:showpageshadow="false"
   inkscape:zoom="1.2040816"
   inkscape:cx="-171.91526"
   inkscape:cy="96.375001"
   inkscape:window-x="-8"
   inkscape:window-y="-8"
   inkscape:window-maximized="1"
   inkscape:current-layer="Layer_1" />
<g
   id="g5922"
   transform="matrix(0.77821012,0,0,0.77821012,0,-1.2645914)"
   style="fill:#f6923d;fill-opacity:1">
	<g
   id="g5920"
   style="fill:#f6923d;fill-opacity:1">
		<g
   id="g5918"
   style="fill:#f6923d;fill-opacity:1">
			<path
   d="M 185.493,145.375 H 182 v -17.5 c 0,-12.322 -9.131,-22.548 -21,-24.25 v -21.25 h 17.5 c 1.933,0 3.5,-1.566 3.5,-3.5 v -31.5 c 0,-1.934 -1.567,-3.5 -3.5,-3.5 H 161 v -17.5 c 0,-1.934 -1.567,-3.5 -3.5,-3.5 H 42 V 1.625 h -7 v 24.75 7 10.5 H 17.5 c -1.933,0 -3.5,1.566 -3.5,3.5 v 31.5 c 0,1.934 1.567,3.5 3.5,3.5 H 35 v 21.246 c -11.855,1.688 -21,11.922 -21,24.254 v 17.5 H 10.507 C 4.713,145.375 0,150.081 0,155.868 v 14.014 c 0,5.787 4.713,10.493 10.507,10.493 H 21 v 10.5 c 0,1.934 1.567,3.5 3.5,3.5 H 56 c 1.933,0 3.5,-1.566 3.5,-3.5 v -10.5 h 77 v 10.5 c 0,1.934 1.567,3.5 3.5,3.5 h 31.5 c 1.933,0 3.5,-1.566 3.5,-3.5 v -10.5 h 10.493 c 5.794,0 10.507,-4.706 10.507,-10.493 v -14.014 c 0,-5.787 -4.713,-10.493 -10.507,-10.493 z M 161,50.875 h 14 v 24.5 h -14 z m -140,24.5 v -24.5 h 14 v 24.5 z m 0,52.5 c 0,-9.649 7.836,-17.5 17.466,-17.5 H 38.5 c 1.933,0 3.5,-1.566 3.5,-3.5 v -28 -31.5 -14 -3.5 h 112 v 17.5 31.5 28 c 0,1.934 1.601,3.5 3.534,3.5 9.63,0 17.466,7.851 17.466,17.5 v 17.5 h -42 v -42 c 0,-1.934 -1.567,-3.5 -3.5,-3.5 h -63 c -1.933,0 -3.5,1.566 -3.5,3.5 v 42 H 21 Z m 105,-21 v 38.5 H 70 v -38.5 z m -73.5,80.5 H 28 v -7 h 24.5 z m 115.5,0 h -24.5 v -7 H 168 Z m 21,-17.493 c 0,1.928 -1.574,3.493 -3.507,3.493 H 171.5 140 56 24.5 10.507 C 8.54,173.375 7,171.84 7,169.882 v -14.014 c 0,-1.928 1.574,-3.493 3.507,-3.493 h 6.993 49 63 49 6.993 c 1.967,0 3.507,1.535 3.507,3.493 z"
   id="path5906"
   inkscape:connector-curvature="0"
   style="fill:#f6923d;fill-opacity:1" />
			<rect
   x="80.5"
   y="113.875"
   width="35"
   height="7"
   id="rect5908"
   style="fill:#f6923d;fill-opacity:1" />
			<rect
   x="80.5"
   y="127.875"
   width="35"
   height="7"
   id="rect5910"
   style="fill:#f6923d;fill-opacity:1" />
			<path
   d="m 52.5,120.875 h -21 c -1.933,0 -3.5,1.566 -3.5,3.5 v 14 c 0,1.934 1.567,3.5 3.5,3.5 h 21 c 1.933,0 3.5,-1.566 3.5,-3.5 v -14 c 0,-1.935 -1.567,-3.5 -3.5,-3.5 z m -3.5,14 H 35 v -7 h 14 z"
   id="path5912"
   inkscape:connector-curvature="0"
   style="fill:#f6923d;fill-opacity:1" />
			<path
   d="m 140,124.375 v 14 c 0,1.934 1.567,3.5 3.5,3.5 h 21 c 1.933,0 3.5,-1.566 3.5,-3.5 v -14 c 0,-1.934 -1.567,-3.5 -3.5,-3.5 h -21 c -1.933,0 -3.5,1.565 -3.5,3.5 z m 7,3.5 h 14 v 7 h -14 z"
   id="path5914"
   inkscape:connector-curvature="0"
   style="fill:#f6923d;fill-opacity:1" />
			<path
   d="m 52.5,89.375 h 91 c 1.933,0 3.5,-1.566 3.5,-3.5 v -42 c 0,-1.934 -1.567,-3.5 -3.5,-3.5 h -91 c -1.933,0 -3.5,1.566 -3.5,3.5 v 42 c 0,1.934 1.567,3.5 3.5,3.5 z m 3.5,-42 h 84 v 35 H 56 Z"
   id="path5916"
   inkscape:connector-curvature="0"
   style="fill:#f6923d;fill-opacity:1" />
		</g>
	</g>
</g>
<g
   id="g5924"
   transform="translate(0,-44.375)">
</g>
<g
   id="g5926"
   transform="translate(0,-44.375)">
</g>
<g
   id="g5928"
   transform="translate(0,-44.375)">
</g>
<g
   id="g5930"
   transform="translate(0,-44.375)">
</g>
<g
   id="g5932"
   transform="translate(0,-44.375)">
</g>
<g
   id="g5934"
   transform="translate(0,-44.375)">
</g>
<g
   id="g5936"
   transform="translate(0,-44.375)">
</g>
<g
   id="g5938"
   transform="translate(0,-44.375)">
</g>
<g
   id="g5940"
   transform="translate(0,-44.375)">
</g>
<g
   id="g5942"
   transform="translate(0,-44.375)">
</g>
<g
   id="g5944"
   transform="translate(0,-44.375)">
</g>
<g
   id="g5946"
   transform="translate(0,-44.375)">
</g>
<g
   id="g5948"
   transform="translate(0,-44.375)">
</g>
<g
   id="g5950"
   transform="translate(0,-44.375)">
</g>
<g
   id="g5952"
   transform="translate(0,-44.375)">
</g>
</svg>