<?xml version="1.0" encoding="UTF-8" standalone="no"?>
<svg
   xmlns:dc="http://purl.org/dc/elements/1.1/"
   xmlns:cc="http://creativecommons.org/ns#"
   xmlns:rdf="http://www.w3.org/1999/02/22-rdf-syntax-ns#"
   xmlns:svg="http://www.w3.org/2000/svg"
   xmlns="http://www.w3.org/2000/svg"
   id="svg4236"
   version="1.1"
   viewBox="0 0 117.27526 27.094253"
   height="102.40347"
   width="443.24509">
  <defs
     id="defs4230" />
  <metadata
     id="metadata4233">
    <rdf:RDF>
      <cc:Work
         rdf:about="">
        <dc:format>image/svg+xml</dc:format>
        <dc:type
           rdf:resource="http://purl.org/dc/dcmitype/StillImage" />
        <dc:title></dc:title>
      </cc:Work>
    </rdf:RDF>
  </metadata>
  <g
     transform="translate(-46.026406,-256.59765)"
     id="layer1">
    <g
       id="g3786">
      <g
         id="g4929"
         style="fill:#34383a;fill-opacity:1">
        <g
           id="SvgjsG1010"
           rel="mainfill"
           name="symbol"
           transform="matrix(0.32325871,0,0,0.32325871,41.235366,253.98087)"
           style="fill:#34383a;fill-opacity:1">
          <path
             d="m 50.257,46.649 c 0,0 0.424,-6.388 -6.264,-6.717 0,0 0.253,5.59 6.264,6.717 z"
             id="path9"
             style="fill:#34383a;fill-opacity:1" />
          <path
             d="m 61.488,30.824 c -6.542,-1.435 -7.808,4.841 -7.808,4.841 6.096,0.488 7.808,-4.841 7.808,-4.841 z"
             id="path11"
             style="fill:#34383a;fill-opacity:1" />
          <path
             d="m 49.853,54.055 c 5.855,-1.763 5.508,-7.35 5.508,-7.35 -6.614,1.044 -5.508,7.35 -5.508,7.35 z"
             id="path13"
             style="fill:#34383a;fill-opacity:1" />
          <path
             d="m 51.264,41.792 c 0,0 0.426,-6.387 -6.262,-6.718 -0.001,0 0.253,5.592 6.262,6.718 z"
             id="path15"
             style="fill:#34383a;fill-opacity:1" />
          <path
             d="m 52.35,37.265 c 0,0 0.425,-6.386 -6.267,-6.717 0,0 0.254,5.591 6.267,6.717 z"
             id="path17"
             style="fill:#34383a;fill-opacity:1" />
          <path
             d="m 60.078,23.858 c -6.586,1.216 -5.316,7.49 -5.316,7.49 5.807,-1.915 5.316,-7.49 5.316,-7.49 z"
             id="path19"
             style="fill:#34383a;fill-opacity:1" />
          <path
             d="m 50.871,46.811 c 6.111,-0.259 7.159,-5.756 7.159,-5.756 -6.668,-0.628 -7.159,5.756 -7.159,5.756 z"
             id="path21"
             style="fill:#34383a;fill-opacity:1" />
          <path
             d="m 52.119,41.008 c 6.102,0.418 7.747,-4.933 7.747,-4.933 -6.556,-1.355 -7.747,4.933 -7.747,4.933 z"
             id="path23"
             style="fill:#34383a;fill-opacity:1" />
          <path
             d="m 54.167,32.845 c 0,0 0.423,-6.387 -6.266,-6.718 0,0 0.256,5.591 6.266,6.718 z"
             id="path25"
             style="fill:#34383a;fill-opacity:1" />
          <path
             d="m 55.812,59.953 c -6.653,0.769 -5.811,7.115 -5.811,7.115 5.923,-1.519 5.811,-7.115 5.811,-7.115 z"
             id="path27"
             style="fill:#34383a;fill-opacity:1" />
          <path
             d="m 55.395,53.831 c -6.683,0.442 -6.15,6.822 -6.15,6.822 5.988,-1.228 6.15,-6.822 6.15,-6.822 z"
             id="path29"
             style="fill:#34383a;fill-opacity:1" />
          <path
             d="m 49.085,56.842 c 0,0 0.424,-6.391 -6.264,-6.719 0,0 0.253,5.591 6.264,6.719 z"
             id="path31"
             style="fill:#34383a;fill-opacity:1" />
          <path
             d="m 49.569,51.41 c 0,0 0.426,-6.386 -6.264,-6.717 10e-4,0 0.254,5.592 6.264,6.717 z"
             id="path33"
             style="fill:#34383a;fill-opacity:1" />
          <path
             d="m 43.071,61.268 c 0,0 0.253,5.592 6.265,6.718 -10e-4,-0.001 0.424,-6.387 -6.265,-6.718 z"
             id="path35"
             style="fill:#34383a;fill-opacity:1" />
          <path
             d="m 49.059,62.457 c 0,0 0.425,-6.388 -6.264,-6.717 0,0 0.256,5.591 6.264,6.717 z"
             id="path37"
             style="fill:#34383a;fill-opacity:1" />
          <path
             d="m 83.114,61.629 c 0,0 6.599,-7.617 -3.84,-43.781 0,0 0.435,-0.781 0.879,-1.843 1.133,-2.049 1.716,-4.152 0.38,-5.36 -0.004,-0.004 -0.007,-0.004 -0.011,-0.007 -0.138,-0.151 -0.314,-0.273 -0.515,-0.377 -0.07,-0.044 -0.138,-0.082 -0.209,-0.119 -0.01,-0.003 -0.018,-0.008 -0.032,-0.012 -3.015,-1.523 -6.823,2.599 -7.138,2.953 -1.08,0.667 -2.422,1.394 -3.985,2.103 -1.032,-1.543 -2.787,-2.561 -4.784,-2.561 -0.141,0 -0.272,0.031 -0.409,0.042 -0.546,-2.61 -2.86,-4.572 -5.632,-4.572 -2.371,0 -4.403,1.435 -5.285,3.482 C 51.651,9.53 49.619,8.095 47.248,8.095 44.875,8.095 42.844,9.53 41.962,11.577 41.08,9.53 39.048,8.095 36.676,8.095 c -2.797,0 -5.125,1.996 -5.643,4.643 -1.416,0.278 -2.631,1.084 -3.468,2.193 -6.417,-2.74 -10.051,-1.358 -11.305,-0.638 -0.071,0.037 -0.132,0.077 -0.196,0.119 -0.206,0.128 -0.344,0.23 -0.344,0.23 l -0.087,0.091 c -0.055,0.052 -0.107,0.105 -0.158,0.164 l -0.064,0.067 0.019,0.012 c -0.713,0.939 -0.425,2.473 1.909,4.974 0,0 -5.847,4.178 0.279,39.299 0,0 -4.939,15.743 0.078,23.526 7.018,1.056 16.031,1.667 21.835,-0.733 0,0 -8.135,5.463 -21.873,2.337 -1.279,2.19 -3.532,7.78 6.968,7.514 l -0.031,0.018 h 58.139 l 1.26,-6.628 -0.015,-0.017 C 89.208,68.474 83.114,61.629 83.114,61.629 Z M 55.212,79.807 55.195,79.77 50.751,86.302 C 49.946,83.242 47.432,79.723 46.889,78.988 36.528,66.155 20.185,64.767 20.185,64.767 c 0,0 6.629,-1.729 15.782,1.841 5.623,2.193 10.488,7.72 13.416,11.668 l -0.671,-6.245 c 0,0 -5.204,-2.159 -7.435,-8.981 l -2.682,-6.406 c 0,0 2.375,3.356 3.241,3.395 0.864,0.033 1.344,0.338 1.344,0.338 l -2.049,-5.064 c 0,0 -1.159,-2.725 -1.938,-4.133 -0.78,-1.409 1.6,2.922 2.799,3.197 1.2,0.272 0.893,-0.219 0.893,-0.219 0,0 -1.17,-2.111 -1.914,-4.384 -0.743,-2.276 -1.539,-4.044 -1.539,-4.044 0,0 2.187,3.187 2.879,3.408 0.695,0.225 1.253,-0.231 1.253,-0.231 0,0 -1.86,-3.919 -2.142,-4.665 -0.285,-0.744 -1.119,-2.618 -1.119,-2.618 0,0 1.676,2.162 2.394,2.131 0.719,-0.029 1.196,-0.696 1.196,-0.696 0,0 -0.879,-2.953 -1.407,-4.336 -0.525,-1.382 -0.647,-1.703 -0.957,-2.194 -0.308,-0.492 1.541,1.486 1.541,1.486 l 1.614,0.723 c 0,0 -0.363,-3.515 -0.9,-4.285 -0.537,-0.771 -1.077,-2.512 -1.077,-2.512 0,0 1.553,1.844 2.672,1.904 1.122,0.062 1.122,0.062 1.122,0.062 0,0 -1.119,-2.618 -2.076,-4.811 -0.957,-2.193 -1.2,-2.832 -1.2,-2.832 0,0 1.332,2.538 3.65,2.872 l 0.588,0.264 0.557,-0.456 -1.083,-3.484 -1.2,-2.832 c 0,0 1.17,2.112 1.971,2.295 0.799,0.183 2.891,0.239 2.891,0.239 l 3.726,2.113 c 0,0 2.646,-3.93 3.817,-4.375 1.162,-0.443 1.11,-0.189 3.082,-1.174 1.021,-0.511 3.425,-2.521 3.425,-2.521 l -3.332,4.677 -0.479,3.227 -1.511,1.791 c 0,0 1.084,0.928 1.441,0.913 0.362,-0.016 1.977,0.709 2.4,0.547 0.427,-0.161 2.875,-1.093 2.875,-1.093 l -4.579,3.327 -1.47,1.899 0.948,0.248 1.382,-0.527 1.504,-0.208 -3.436,3.134 -0.886,1.19 c 0,0 -0.847,1.296 -1.045,1.736 -0.196,0.44 -0.845,1.297 1.692,-0.033 2.536,-1.334 2.536,-1.334 2.536,-1.334 0,0 -3.076,2.149 -3.514,2.924 -0.435,0.773 -1.069,1.987 -1.069,1.987 l -2.053,2.61 c 0,0 1.36,-0.273 2.021,-0.771 0.666,-0.495 -0.764,1.51 -0.764,1.51 l -0.897,1.804 c 0,0 -1.718,2.844 -1.953,3.179 -0.239,0.333 -0.872,1.549 -0.872,1.549 0,0 2.305,-0.023 3.049,-0.308 0.743,-0.283 1.815,-1.303 1.815,-1.303 l -2.34,3.45 -1.211,2.896 -0.968,0.978 c 0,0 0.628,0.37 0.947,0.248 0.319,-0.121 1.702,-0.646 2.513,-1.078 0.811,-0.43 2.365,-1.142 2.365,-1.142 l -2.797,2.89 -0.451,2.973 c 0,0 -2.26,6.219 -6.444,8.66 l 1.727,8.747 c 2.624,-3.757 7.742,-10.117 13.79,-12.479 8.788,-3.424 15.149,-1.768 15.149,-1.768 0,0 -15.568,1.347 -25.52,13.552 z M 80.287,57.232 C 82.984,36.927 75.733,22.394 75.733,22.394 87.2,40.607 80.287,57.232 80.287,57.232 Z"
             id="path39"
             style="fill:#34383a;fill-opacity:1" />
        </g>
        <text
           id="text4821"
           y="271.86456"
           x="72.495842"
           style="font-style:normal;font-variant:normal;font-weight:normal;font-stretch:normal;font-size:10.58333302px;line-height:0.69999999;font-family:Tahoma;-inkscape-font-specification:Tahoma;letter-spacing:0px;word-spacing:0px;fill:#34383a;fill-opacity:1;stroke:none;stroke-width:0.26458332"
           xml:space="preserve"><tspan
             style="font-style:normal;font-variant:normal;font-weight:normal;font-stretch:normal;font-size:14.11111069px;line-height:0.69999999;font-family:'Open Sans';-inkscape-font-specification:'Open Sans';font-variant-ligatures:normal;font-variant-caps:normal;font-variant-numeric:normal;font-feature-settings:normal;text-align:start;writing-mode:lr-tb;text-anchor:start;fill:#34383a;fill-opacity:1;stroke-width:0.26458332"
             y="271.86456"
             x="72.495842"
             id="tspan4819">WHOLEGRAIN</tspan><tspan
             id="tspan4823"
             style="font-style:normal;font-variant:normal;font-weight:normal;font-stretch:normal;font-size:5.64444447px;line-height:0.69999999;font-family:Roboto;-inkscape-font-specification:Roboto;fill:#34383a;fill-opacity:1;stroke-width:0.26458332"
             y="279.86484"
             x="72.495842">Australia</tspan></text>
      </g>
    </g>
  </g>
</svg>
